<?xml version="1.0" encoding="iso-8859-1"?>
<!-- Generator: Adobe Illustrator 18.0.0, SVG Export Plug-In . SVG Version: 6.00 Build 0)  -->
<!DOCTYPE svg PUBLIC "-//W3C//DTD SVG 1.1//EN" "http://www.w3.org/Graphics/SVG/1.1/DTD/svg11.dtd">
<svg version="1.1" id="Layer_1" xmlns="http://www.w3.org/2000/svg" xmlns:xlink="http://www.w3.org/1999/xlink" x="0px" y="0px"
	 viewBox="0 0 201 113" style="enable-background:new 0 0 201 113;" xml:space="preserve">
<g>
	<defs>
		<rect id="SVGID_1_" width="201" height="113"/>
	</defs>
	<clipPath id="SVGID_2_">
		<use xlink:href="#SVGID_1_"  style="overflow:visible;"/>
	</clipPath>
	<path style="clip-path:url(#SVGID_2_);fill:#FFFFFF;" d="M170.961,112.74c0.174,0.174,0.357,0.26,0.56,0.26
		c0.357,0,0.609-0.271,0.609-0.732v-6.437h-1.169v5.141l-4.952-4.918c-0.184-0.185-0.339-0.251-0.521-0.251
		c-0.388,0-0.628,0.279-0.628,0.733v6.378h1.168v-5.142L170.961,112.74z M164.135,112.914l-4.045-6.725
		c-0.145-0.242-0.318-0.396-0.589-0.396c-0.271,0-0.454,0.154-0.599,0.396l-4.035,6.725h1.398l3.187-5.392l1.563,2.628h-2.151
		l-0.579,0.995h3.321l1.052,1.769H164.135z M148.475,105.889h-1.227v7.054h1.227V105.889z M154.123,112.942v-7.053h-1.226v2.908
		h-3.533v1.092h3.533v3.053H154.123z M144.014,112.914c1.469,0,2.184-0.88,2.184-2.059c0-1.362-0.764-2.029-2.184-2.029H140.8
		c-0.54,0-0.878-0.318-0.878-0.849c0-0.533,0.327-0.861,0.887-0.861h5.04v-1.227h-5.04c-1.399,0-2.161,0.84-2.161,1.971
		c0,1.159,0.82,2,2.144,2h3.223c0.658,0,1.024,0.31,1.024,0.908c0,0.551-0.366,0.918-1.024,0.918h-5.26v1.228H144.014z
		 M132.614,111.686c-1.266,0-2.184-0.976-2.184-2.3c0-1.333,0.928-2.271,2.184-2.271h1.709c1.293,0,2.211,0.946,2.211,2.271
		c0,1.325-0.918,2.3-2.211,2.3H132.614z M134.323,112.914c1.998,0,3.437-1.547,3.437-3.585c0-2.039-1.41-3.438-3.437-3.438h-1.709
		c-1.96,0-3.408,1.37-3.408,3.438c0,2.038,1.448,3.585,3.408,3.585H134.323z M128.934,112.914l-2.114-2.137
		c0.908-0.348,1.447-1.168,1.447-2.328c0-1.565-0.945-2.56-2.547-2.56h-5.039v7.024h1.216v-5.798h3.823
		c0.839,0,1.342,0.445,1.342,1.353c0,0.909-0.464,1.411-1.342,1.411h-2.926v1.082h2.626l1.776,1.952L128.934,112.914
		L128.934,112.914z M110.621,105.891h-1.229v7.023h1.229V105.891z M117.05,112.914l-4.741-3.595l4.597-3.43h-1.883l-3.718,2.859
		c-0.251,0.193-0.309,0.348-0.309,0.562c0,0.193,0.039,0.347,0.252,0.512l3.929,3.092H117.05z M108.111,105.891h-1.229v7.023h1.229
		V105.891z M99.952,105.889h-1.227v7.054h1.227V105.889z M105.599,112.942v-7.053h-1.226v2.908h-3.534v1.092h3.534v3.053H105.599z
		 M95.25,112.914v-5.798h2.664v-1.227H91.36v1.227h2.665v5.798H95.25z M90.49,105.891h-1.226v7.023h1.226V105.891z M88.56,112.914
		l-2.114-2.137c0.908-0.348,1.449-1.168,1.449-2.328c0-1.565-0.947-2.56-2.549-2.56h-5.04v7.024h1.217v-5.798h3.823
		c0.839,0,1.341,0.445,1.341,1.353c0,0.909-0.463,1.411-1.341,1.411H82.42v1.082h2.626l1.776,1.952L88.56,112.914L88.56,112.914z
		 M73.44,105.889h-1.226v7.054h1.226V105.889z M79.088,112.942v-7.053h-1.227v2.908h-3.533v1.092h3.533v3.053H79.088z
		 M64.906,112.914H63.68v-2.668l-3.727-4.355h1.651l2.732,3.235l2.742-3.235h1.564l-3.736,4.355V112.914z M57.819,109.86
		c0.686,0,1.062,0.328,1.062,0.908c0,0.687-0.637,0.928-1.516,0.928h-3.553v-4.58h3.446c0.908,0,1.497,0.115,1.497,0.861
		c0,0.607-0.329,0.849-1.023,0.849H54.7v1.034H57.819z M57.868,112.914c1.371,0,2.259-0.841,2.259-2.127
		c0-0.82-0.463-1.381-1.101-1.584c0.521-0.164,0.975-0.609,0.975-1.498c0-1.197-0.907-1.814-2.278-1.814h-5.137v7.023H57.868z"/>
	<path style="clip-path:url(#SVGID_2_);fill:#FFFFFF;" d="M117.04,28.348L117.04,28.348l15.689,20.082l-12.875,10.646l-24.02-30.747
		L117.04,28.348z M142.604,61.071L142.604,61.071l29.907,38.287l-21.179,0.016l-20.623-26.398L142.604,61.071z M52.586,99.421
		v-57.16h13.576h8.909c4.941,0,8.946,3.048,8.946,6.807c0,3.758-4.006,6.899-8.946,6.906l-9.488,0.014h-7.208V69.94l29.447,29.476
		h13.951L201,0h-2.22L94.448,92.089l-22.13-22.147c18.23,0,26.428-11.104,26.428-20.824c0-8.02-6.348-20.826-26.432-20.826H35.891
		v27.682H16.696V28.292H0v71.129h16.696V69.944h19.195v29.477H52.586z"/>
	<path style="clip-path:url(#SVGID_2_);fill:#C5262C;" d="M94.582,82.544L81.977,69.922c-1.943,0.485-3.984,0.771-6.091,0.83
		l18.725,18.212L196.402,0h-1.998C161.125,27.518,127.854,55,94.582,82.544"/>
</g>
</svg>
